<mxfile host="app.diagrams.net" modified="2023-08-03T08:37:57.427Z" agent="Mozilla/5.0 (Windows NT 10.0; Win64; x64) AppleWebKit/537.36 (KHTML, like Gecko) Chrome/115.0.0.0 Safari/537.36" etag="Z9OIygHF36sg0sZPgmQH" version="21.6.6" type="github">
  <diagram name="Page-1" id="98Sg_2Q66M_nFeIvmSXe">
    <mxGraphModel dx="1434" dy="750" grid="1" gridSize="10" guides="1" tooltips="1" connect="1" arrows="1" fold="1" page="1" pageScale="1" pageWidth="1169" pageHeight="1654" math="0" shadow="0">
      <root>
        <mxCell id="0" />
        <mxCell id="1" parent="0" />
        <mxCell id="unHHo_6VwoqwDCIZuL7B-3" value="Client&lt;br&gt;" style="shape=umlActor;verticalLabelPosition=bottom;verticalAlign=top;html=1;outlineConnect=0;" vertex="1" parent="1">
          <mxGeometry x="60" y="220" width="30" height="60" as="geometry" />
        </mxCell>
        <mxCell id="unHHo_6VwoqwDCIZuL7B-7" value="Spring Batch Job" style="rounded=1;whiteSpace=wrap;html=1;" vertex="1" parent="1">
          <mxGeometry x="300" y="180" width="190" height="140" as="geometry" />
        </mxCell>
        <mxCell id="unHHo_6VwoqwDCIZuL7B-16" value="" style="endArrow=classic;html=1;rounded=0;" edge="1" parent="1">
          <mxGeometry width="50" height="50" relative="1" as="geometry">
            <mxPoint x="110" y="240" as="sourcePoint" />
            <mxPoint x="280" y="240" as="targetPoint" />
            <Array as="points">
              <mxPoint x="160" y="240" />
            </Array>
          </mxGeometry>
        </mxCell>
        <mxCell id="unHHo_6VwoqwDCIZuL7B-17" value="HTTP/REST APIT" style="edgeLabel;html=1;align=center;verticalAlign=middle;resizable=0;points=[];" vertex="1" connectable="0" parent="unHHo_6VwoqwDCIZuL7B-16">
          <mxGeometry x="-0.0706" y="3" relative="1" as="geometry">
            <mxPoint y="-17" as="offset" />
          </mxGeometry>
        </mxCell>
        <mxCell id="unHHo_6VwoqwDCIZuL7B-18" value="" style="endArrow=classic;html=1;rounded=0;" edge="1" parent="1">
          <mxGeometry width="50" height="50" relative="1" as="geometry">
            <mxPoint x="280" y="270" as="sourcePoint" />
            <mxPoint x="110" y="270" as="targetPoint" />
          </mxGeometry>
        </mxCell>
        <mxCell id="unHHo_6VwoqwDCIZuL7B-19" value="RESPONSE" style="edgeLabel;html=1;align=center;verticalAlign=middle;resizable=0;points=[];" vertex="1" connectable="0" parent="unHHo_6VwoqwDCIZuL7B-18">
          <mxGeometry x="0.0941" y="8" relative="1" as="geometry">
            <mxPoint as="offset" />
          </mxGeometry>
        </mxCell>
        <mxCell id="unHHo_6VwoqwDCIZuL7B-20" value="Service-1" style="shape=hexagon;perimeter=hexagonPerimeter2;whiteSpace=wrap;html=1;fixedSize=1;" vertex="1" parent="1">
          <mxGeometry x="860" y="30" width="120" height="80" as="geometry" />
        </mxCell>
        <mxCell id="unHHo_6VwoqwDCIZuL7B-21" value="Service-2" style="shape=hexagon;perimeter=hexagonPerimeter2;whiteSpace=wrap;html=1;fixedSize=1;" vertex="1" parent="1">
          <mxGeometry x="860" y="140" width="120" height="80" as="geometry" />
        </mxCell>
        <mxCell id="unHHo_6VwoqwDCIZuL7B-22" value="Service-3" style="shape=hexagon;perimeter=hexagonPerimeter2;whiteSpace=wrap;html=1;fixedSize=1;" vertex="1" parent="1">
          <mxGeometry x="860" y="250" width="120" height="80" as="geometry" />
        </mxCell>
        <mxCell id="unHHo_6VwoqwDCIZuL7B-23" value="Service-4" style="shape=hexagon;perimeter=hexagonPerimeter2;whiteSpace=wrap;html=1;fixedSize=1;" vertex="1" parent="1">
          <mxGeometry x="860" y="360" width="120" height="80" as="geometry" />
        </mxCell>
        <mxCell id="unHHo_6VwoqwDCIZuL7B-24" value="Service-5" style="shape=hexagon;perimeter=hexagonPerimeter2;whiteSpace=wrap;html=1;fixedSize=1;" vertex="1" parent="1">
          <mxGeometry x="860" y="470" width="120" height="80" as="geometry" />
        </mxCell>
        <mxCell id="unHHo_6VwoqwDCIZuL7B-25" value="DB" style="shape=cylinder3;whiteSpace=wrap;html=1;boundedLbl=1;backgroundOutline=1;size=15;" vertex="1" parent="1">
          <mxGeometry x="365" y="410" width="60" height="80" as="geometry" />
        </mxCell>
        <mxCell id="unHHo_6VwoqwDCIZuL7B-26" value="" style="endArrow=classic;startArrow=classic;html=1;rounded=0;" edge="1" parent="1">
          <mxGeometry width="50" height="50" relative="1" as="geometry">
            <mxPoint x="394.5" y="395" as="sourcePoint" />
            <mxPoint x="394.5" y="325" as="targetPoint" />
          </mxGeometry>
        </mxCell>
        <mxCell id="unHHo_6VwoqwDCIZuL7B-29" value="" style="endArrow=classic;html=1;rounded=0;entryX=0;entryY=0.5;entryDx=0;entryDy=0;" edge="1" parent="1" target="unHHo_6VwoqwDCIZuL7B-20">
          <mxGeometry width="50" height="50" relative="1" as="geometry">
            <mxPoint x="500" y="270" as="sourcePoint" />
            <mxPoint x="610" y="260" as="targetPoint" />
          </mxGeometry>
        </mxCell>
        <mxCell id="unHHo_6VwoqwDCIZuL7B-34" value="HTTP/REST API" style="edgeLabel;html=1;align=center;verticalAlign=middle;resizable=0;points=[];" vertex="1" connectable="0" parent="unHHo_6VwoqwDCIZuL7B-29">
          <mxGeometry x="-0.05" relative="1" as="geometry">
            <mxPoint as="offset" />
          </mxGeometry>
        </mxCell>
        <mxCell id="unHHo_6VwoqwDCIZuL7B-30" value="" style="endArrow=classic;html=1;rounded=0;exitX=0.989;exitY=0.643;exitDx=0;exitDy=0;exitPerimeter=0;entryX=0;entryY=0.5;entryDx=0;entryDy=0;" edge="1" parent="1" source="unHHo_6VwoqwDCIZuL7B-7" target="unHHo_6VwoqwDCIZuL7B-21">
          <mxGeometry width="50" height="50" relative="1" as="geometry">
            <mxPoint x="502" y="267" as="sourcePoint" />
            <mxPoint x="870" y="80" as="targetPoint" />
          </mxGeometry>
        </mxCell>
        <mxCell id="unHHo_6VwoqwDCIZuL7B-35" value="HTTP/REST API" style="edgeLabel;html=1;align=center;verticalAlign=middle;resizable=0;points=[];" vertex="1" connectable="0" parent="unHHo_6VwoqwDCIZuL7B-30">
          <mxGeometry x="0.0649" relative="1" as="geometry">
            <mxPoint as="offset" />
          </mxGeometry>
        </mxCell>
        <mxCell id="unHHo_6VwoqwDCIZuL7B-31" value="" style="endArrow=classic;html=1;rounded=0;exitX=0.989;exitY=0.636;exitDx=0;exitDy=0;exitPerimeter=0;entryX=0;entryY=0.5;entryDx=0;entryDy=0;" edge="1" parent="1" source="unHHo_6VwoqwDCIZuL7B-7" target="unHHo_6VwoqwDCIZuL7B-22">
          <mxGeometry width="50" height="50" relative="1" as="geometry">
            <mxPoint x="512" y="277" as="sourcePoint" />
            <mxPoint x="880" y="90" as="targetPoint" />
          </mxGeometry>
        </mxCell>
        <mxCell id="unHHo_6VwoqwDCIZuL7B-36" value="HTTP/REST API" style="edgeLabel;html=1;align=center;verticalAlign=middle;resizable=0;points=[];" vertex="1" connectable="0" parent="unHHo_6VwoqwDCIZuL7B-31">
          <mxGeometry x="0.0971" relative="1" as="geometry">
            <mxPoint as="offset" />
          </mxGeometry>
        </mxCell>
        <mxCell id="unHHo_6VwoqwDCIZuL7B-32" value="" style="endArrow=classic;html=1;rounded=0;exitX=1;exitY=0.643;exitDx=0;exitDy=0;exitPerimeter=0;entryX=0;entryY=0.5;entryDx=0;entryDy=0;" edge="1" parent="1" source="unHHo_6VwoqwDCIZuL7B-7" target="unHHo_6VwoqwDCIZuL7B-23">
          <mxGeometry width="50" height="50" relative="1" as="geometry">
            <mxPoint x="522" y="287" as="sourcePoint" />
            <mxPoint x="890" y="100" as="targetPoint" />
          </mxGeometry>
        </mxCell>
        <mxCell id="unHHo_6VwoqwDCIZuL7B-37" value="HTTP/REST API" style="edgeLabel;html=1;align=center;verticalAlign=middle;resizable=0;points=[];" vertex="1" connectable="0" parent="unHHo_6VwoqwDCIZuL7B-32">
          <mxGeometry x="0.1211" y="-1" relative="1" as="geometry">
            <mxPoint as="offset" />
          </mxGeometry>
        </mxCell>
        <mxCell id="unHHo_6VwoqwDCIZuL7B-33" value="" style="endArrow=classic;html=1;rounded=0;exitX=1.011;exitY=0.65;exitDx=0;exitDy=0;exitPerimeter=0;entryX=0;entryY=0.5;entryDx=0;entryDy=0;" edge="1" parent="1" source="unHHo_6VwoqwDCIZuL7B-7" target="unHHo_6VwoqwDCIZuL7B-24">
          <mxGeometry width="50" height="50" relative="1" as="geometry">
            <mxPoint x="532" y="297" as="sourcePoint" />
            <mxPoint x="900" y="110" as="targetPoint" />
          </mxGeometry>
        </mxCell>
        <mxCell id="unHHo_6VwoqwDCIZuL7B-38" value="HTTP/REST API" style="edgeLabel;html=1;align=center;verticalAlign=middle;resizable=0;points=[];" vertex="1" connectable="0" parent="unHHo_6VwoqwDCIZuL7B-33">
          <mxGeometry x="0.0517" y="1" relative="1" as="geometry">
            <mxPoint as="offset" />
          </mxGeometry>
        </mxCell>
        <mxCell id="unHHo_6VwoqwDCIZuL7B-39" value="Spring Batch Job&lt;br&gt;&amp;amp;&lt;br&gt;Subscribe Topic" style="rounded=1;whiteSpace=wrap;html=1;" vertex="1" parent="1">
          <mxGeometry x="680" y="800" width="190" height="140" as="geometry" />
        </mxCell>
        <mxCell id="unHHo_6VwoqwDCIZuL7B-40" value="" style="endArrow=classic;html=1;rounded=0;" edge="1" parent="1">
          <mxGeometry width="50" height="50" relative="1" as="geometry">
            <mxPoint x="60" y="869.5" as="sourcePoint" />
            <mxPoint x="190" y="869.5" as="targetPoint" />
            <Array as="points">
              <mxPoint x="110" y="869.5" />
            </Array>
          </mxGeometry>
        </mxCell>
        <mxCell id="unHHo_6VwoqwDCIZuL7B-41" value="HTTP/REST APIT" style="edgeLabel;html=1;align=center;verticalAlign=middle;resizable=0;points=[];" vertex="1" connectable="0" parent="unHHo_6VwoqwDCIZuL7B-40">
          <mxGeometry x="-0.0706" y="3" relative="1" as="geometry">
            <mxPoint y="-17" as="offset" />
          </mxGeometry>
        </mxCell>
        <mxCell id="unHHo_6VwoqwDCIZuL7B-44" value="Service-1" style="shape=hexagon;perimeter=hexagonPerimeter2;whiteSpace=wrap;html=1;fixedSize=1;" vertex="1" parent="1">
          <mxGeometry x="1020" y="610" width="120" height="80" as="geometry" />
        </mxCell>
        <mxCell id="unHHo_6VwoqwDCIZuL7B-45" value="Service-2" style="shape=hexagon;perimeter=hexagonPerimeter2;whiteSpace=wrap;html=1;fixedSize=1;" vertex="1" parent="1">
          <mxGeometry x="1020" y="720" width="120" height="80" as="geometry" />
        </mxCell>
        <mxCell id="unHHo_6VwoqwDCIZuL7B-46" value="Service-3" style="shape=hexagon;perimeter=hexagonPerimeter2;whiteSpace=wrap;html=1;fixedSize=1;" vertex="1" parent="1">
          <mxGeometry x="1020" y="830" width="120" height="80" as="geometry" />
        </mxCell>
        <mxCell id="unHHo_6VwoqwDCIZuL7B-47" value="Service-4" style="shape=hexagon;perimeter=hexagonPerimeter2;whiteSpace=wrap;html=1;fixedSize=1;" vertex="1" parent="1">
          <mxGeometry x="1020" y="940" width="120" height="80" as="geometry" />
        </mxCell>
        <mxCell id="unHHo_6VwoqwDCIZuL7B-48" value="Service-5" style="shape=hexagon;perimeter=hexagonPerimeter2;whiteSpace=wrap;html=1;fixedSize=1;" vertex="1" parent="1">
          <mxGeometry x="1020" y="1050" width="120" height="80" as="geometry" />
        </mxCell>
        <mxCell id="unHHo_6VwoqwDCIZuL7B-49" value="DB" style="shape=cylinder3;whiteSpace=wrap;html=1;boundedLbl=1;backgroundOutline=1;size=15;" vertex="1" parent="1">
          <mxGeometry x="745" y="1030" width="60" height="80" as="geometry" />
        </mxCell>
        <mxCell id="unHHo_6VwoqwDCIZuL7B-50" value="" style="endArrow=classic;startArrow=classic;html=1;rounded=0;" edge="1" parent="1">
          <mxGeometry width="50" height="50" relative="1" as="geometry">
            <mxPoint x="774.5" y="1015" as="sourcePoint" />
            <mxPoint x="774.5" y="945" as="targetPoint" />
          </mxGeometry>
        </mxCell>
        <mxCell id="unHHo_6VwoqwDCIZuL7B-63" value="Client&lt;br&gt;" style="shape=umlActor;verticalLabelPosition=bottom;verticalAlign=top;html=1;outlineConnect=0;" vertex="1" parent="1">
          <mxGeometry x="20" y="830" width="30" height="60" as="geometry" />
        </mxCell>
        <mxCell id="unHHo_6VwoqwDCIZuL7B-64" value="Producer" style="shape=hexagon;perimeter=hexagonPerimeter2;whiteSpace=wrap;html=1;fixedSize=1;" vertex="1" parent="1">
          <mxGeometry x="200" y="830" width="120" height="80" as="geometry" />
        </mxCell>
        <mxCell id="unHHo_6VwoqwDCIZuL7B-69" value="Kafka Topic" style="rounded=0;whiteSpace=wrap;html=1;" vertex="1" parent="1">
          <mxGeometry x="410" y="855" width="180" height="30" as="geometry" />
        </mxCell>
        <mxCell id="unHHo_6VwoqwDCIZuL7B-71" value="" style="endArrow=classic;html=1;rounded=0;" edge="1" parent="1">
          <mxGeometry width="50" height="50" relative="1" as="geometry">
            <mxPoint x="330" y="870" as="sourcePoint" />
            <mxPoint x="400" y="870" as="targetPoint" />
          </mxGeometry>
        </mxCell>
        <mxCell id="unHHo_6VwoqwDCIZuL7B-72" value="" style="endArrow=classic;html=1;rounded=0;" edge="1" parent="1">
          <mxGeometry width="50" height="50" relative="1" as="geometry">
            <mxPoint x="600" y="869.5" as="sourcePoint" />
            <mxPoint x="660" y="870" as="targetPoint" />
          </mxGeometry>
        </mxCell>
        <mxCell id="unHHo_6VwoqwDCIZuL7B-78" value="" style="strokeWidth=2;html=1;shape=mxgraph.flowchart.annotation_2;align=left;labelPosition=right;pointerEvents=1;" vertex="1" parent="1">
          <mxGeometry x="870" y="650" width="110" height="440" as="geometry" />
        </mxCell>
        <mxCell id="unHHo_6VwoqwDCIZuL7B-82" value="" style="endArrow=classic;html=1;rounded=0;" edge="1" parent="1">
          <mxGeometry width="50" height="50" relative="1" as="geometry">
            <mxPoint x="930" y="760" as="sourcePoint" />
            <mxPoint x="1020" y="759.5" as="targetPoint" />
          </mxGeometry>
        </mxCell>
        <mxCell id="unHHo_6VwoqwDCIZuL7B-83" value="" style="endArrow=classic;html=1;rounded=0;exitX=0.491;exitY=0.498;exitDx=0;exitDy=0;exitPerimeter=0;" edge="1" parent="1" source="unHHo_6VwoqwDCIZuL7B-78">
          <mxGeometry width="50" height="50" relative="1" as="geometry">
            <mxPoint x="940" y="870" as="sourcePoint" />
            <mxPoint x="1020" y="869.5" as="targetPoint" />
          </mxGeometry>
        </mxCell>
        <mxCell id="unHHo_6VwoqwDCIZuL7B-84" value="" style="endArrow=classic;html=1;rounded=0;exitX=0.545;exitY=0.743;exitDx=0;exitDy=0;exitPerimeter=0;" edge="1" parent="1" source="unHHo_6VwoqwDCIZuL7B-78">
          <mxGeometry width="50" height="50" relative="1" as="geometry">
            <mxPoint x="940" y="980.5" as="sourcePoint" />
            <mxPoint x="1020" y="980" as="targetPoint" />
          </mxGeometry>
        </mxCell>
        <mxCell id="unHHo_6VwoqwDCIZuL7B-85" value="" style="endArrow=classic;html=1;rounded=0;exitX=0.429;exitY=0.25;exitDx=0;exitDy=0;exitPerimeter=0;" edge="1" parent="1">
          <mxGeometry width="50" height="50" relative="1" as="geometry">
            <mxPoint x="940" y="1089.5" as="sourcePoint" />
            <mxPoint x="1020" y="1089" as="targetPoint" />
          </mxGeometry>
        </mxCell>
        <mxCell id="unHHo_6VwoqwDCIZuL7B-86" value="" style="endArrow=classic;html=1;rounded=0;exitX=0.429;exitY=0.25;exitDx=0;exitDy=0;exitPerimeter=0;" edge="1" parent="1">
          <mxGeometry width="50" height="50" relative="1" as="geometry">
            <mxPoint x="940" y="650.5" as="sourcePoint" />
            <mxPoint x="1020" y="650" as="targetPoint" />
          </mxGeometry>
        </mxCell>
        <mxCell id="unHHo_6VwoqwDCIZuL7B-91" value="" style="endArrow=none;html=1;rounded=0;" edge="1" parent="1">
          <mxGeometry width="50" height="50" relative="1" as="geometry">
            <mxPoint x="870" y="869.5" as="sourcePoint" />
            <mxPoint x="930" y="869.5" as="targetPoint" />
          </mxGeometry>
        </mxCell>
        <mxCell id="unHHo_6VwoqwDCIZuL7B-92" value="HTTP/&lt;br&gt;REST" style="edgeLabel;html=1;align=center;verticalAlign=middle;resizable=0;points=[];" vertex="1" connectable="0" parent="unHHo_6VwoqwDCIZuL7B-91">
          <mxGeometry x="-0.1333" y="-1" relative="1" as="geometry">
            <mxPoint x="4" y="15" as="offset" />
          </mxGeometry>
        </mxCell>
      </root>
    </mxGraphModel>
  </diagram>
</mxfile>
